{
  "accessors": [
    {
      "bufferView": 1,
      "componentType": 5126,
      "count": 36697,
      "max": [
        6.0488038063049316,
        5.8623838424682617,
        2.9736440181732178
      ],
      "min": [
        0.57345199584960938,
        1.9056990146636963,
        6.1999999161344022e-05
      ],
      "type": "VEC3"
    },
    {
      "bufferView": 1,
      "byteOffset": 440364,
      "componentType": 5126,
      "count": 36697,
      "max": [
        0.99998557567596436,
        0.99996626377105713,
        0.99999260902404785
      ],
      "min": [
        -0.99998533725738525,
        -0.99999856948852539,
        -0.99999350309371948
      ],
      "type": "VEC3"
    },
    {
      "bufferView": 0,
      "componentType": 5125,
      "count": 219414,
      "max": [
        36696
      ],
      "min": [
        0
      ],
      "type": "SCALAR"
    }
  ],
  "asset": {
    "extras": {
      "author": "Huargenn (https://sketchfab.com/Huargenn)",
      "license": "CC-BY-4.0 (http://creativecommons.org/licenses/by/4.0/)",
      "source": "https://sketchfab.com/3d-models/butterfly-c622d9870f5644d291c0e273e8287c8b",
      "title": "Butterfly"
    },
    "generator": "Sketchfab-6.22.0",
    "version": "2.0"
  },
  "bufferViews": [
    {
      "buffer": 0,
      "byteLength": 877656,
      "byteOffset": 0,
      "name": "floatBufferViews",
      "target": 34963
    },
    {
      "buffer": 0,
      "byteLength": 880728,
      "byteOffset": 877656,
      "byteStride": 12,
      "name": "floatBufferViews",
      "target": 34962
    }
  ],
  "buffers": [
    {
      "byteLength": 1758384,
      "uri": "scene.bin"
    }
  ],
  "materials": [
    {
      "doubleSided": true,
      "emissiveFactor": [
        0,
        0,
        0
      ],
      "name": "Scene_-_Root",
      "pbrMetallicRoughness": {
        "baseColorFactor": [
          0.5,
          0.5,
          0.5,
          1
        ],
        "metallicFactor": 0,
        "roughnessFactor": 0.59999999999999998
      }
    }
  ],
  "meshes": [
    {
      "primitives": [
        {
          "attributes": {
            "NORMAL": 1,
            "POSITION": 0
          },
          "indices": 2,
          "material": 0,
          "mode": 4
        }
      ]
    }
  ],
  "nodes": [
    {
      "children": [
        1
      ],
      "name": "RootNode (gltf orientation matrix)",
      "rotation": [
        -0.70710678118654746,
        -0,
        -0,
        0.70710678118654757
      ]
    },
    {
      "children": [
        2
      ],
      "name": "RootNode (model correction matrix)"
    },
    {
      "children": [
        3
      ],
      "name": "dbccb064fbd848e387bf48f2004ce7aa.obj.cleaner"
    },
    {
      "mesh": 0,
      "name": ""
    }
  ],
  "scene": 0,
  "scenes": [
    {
      "name": "OSG_Scene",
      "nodes": [
        0
      ]
    }
  ]
}

