{
  "accessors": [
    {
      "bufferView": 2,
      "componentType": 5126,
      "count": 634,
      "max": [
        1.4947459697723389,
        6.5571751594543457,
        1.5753660202026367
      ],
      "min": [
        -1.5125410556793213,
        3.4793360233306885,
        -1.1073800325393677
      ],
      "type": "VEC3"
    },
    {
      "bufferView": 2,
      "byteOffset": 7608,
      "componentType": 5126,
      "count": 634,
      "max": [
        0.98189908266067505,
        0.9989701509475708,
        0.9965854287147522
      ],
      "min": [
        -0.99346888065338135,
        -0.99594658613204956,
        -0.99814873933792114
      ],
      "type": "VEC3"
    },
    {
      "bufferView": 3,
      "componentType": 5126,
      "count": 634,
      "max": [
        0.99938845634460449,
        0.99825632572174072,
        0.99966877698898315,
        1
      ],
      "min": [
        -0.99613678455352783,
        -0.95488208532333374,
        -0.98489367961883545,
        1
      ],
      "type": "VEC4"
    },
    {
      "bufferView": 1,
      "componentType": 5126,
      "count": 634,
      "max": [
        0.99977999925613403,
        0.97266298532485962
      ],
      "min": [
        0.00022099999478086829,
        0.00022099999478086829
      ],
      "type": "VEC2"
    },
    {
      "bufferView": 1,
      "byteOffset": 5072,
      "componentType": 5126,
      "count": 634,
      "max": [
        0.99977999925613403,
        0.97266298532485962
      ],
      "min": [
        0.00022099999478086829,
        0.00022099999478086829
      ],
      "type": "VEC2"
    },
    {
      "bufferView": 0,
      "componentType": 5125,
      "count": 2679,
      "max": [
        633
      ],
      "min": [
        0
      ],
      "type": "SCALAR"
    },
    {
      "bufferView": 2,
      "byteOffset": 15216,
      "componentType": 5126,
      "count": 415,
      "max": [
        2.5380289554595947,
        7.4311919212341309,
        2.3924219608306885
      ],
      "min": [
        -1.794625997543335,
        -2.0194792747497559,
        -2.0136759281158447
      ],
      "type": "VEC3"
    },
    {
      "bufferView": 2,
      "byteOffset": 20196,
      "componentType": 5126,
      "count": 415,
      "max": [
        0.99687474966049194,
        0.98859977722167969,
        0.99531412124633789
      ],
      "min": [
        -0.98133718967437744,
        -0.99839115142822266,
        -0.99915039539337158
      ],
      "type": "VEC3"
    },
    {
      "bufferView": 3,
      "byteOffset": 10144,
      "componentType": 5126,
      "count": 415,
      "max": [
        0.99970477819442749,
        0.99518829584121704,
        0.98629677295684814,
        1
      ],
      "min": [
        -0.99934667348861694,
        -0.99984008073806763,
        -0.99209976196289062,
        1
      ],
      "type": "VEC4"
    },
    {
      "bufferView": 1,
      "byteOffset": 10144,
      "componentType": 5126,
      "count": 415,
      "max": [
        0.99961501359939575,
        0.97286099195480347
      ],
      "min": [
        0.00038400001358240843,
        0.00038400001358240843
      ],
      "type": "VEC2"
    },
    {
      "bufferView": 1,
      "byteOffset": 13464,
      "componentType": 5126,
      "count": 415,
      "max": [
        0.99961501359939575,
        0.97286099195480347
      ],
      "min": [
        0.00038400001358240843,
        0.00038400001358240843
      ],
      "type": "VEC2"
    },
    {
      "bufferView": 0,
      "byteOffset": 10716,
      "componentType": 5125,
      "count": 1314,
      "max": [
        414
      ],
      "min": [
        0
      ],
      "type": "SCALAR"
    },
    {
      "bufferView": 2,
      "byteOffset": 25176,
      "componentType": 5126,
      "count": 522,
      "max": [
        1.3389589786529541,
        3.8993730545043945,
        0.69218498468399048
      ],
      "min": [
        -0.44497999548912048,
        0.68691301345825195,
        -0.84673899412155151
      ],
      "type": "VEC3"
    },
    {
      "bufferView": 2,
      "byteOffset": 31440,
      "componentType": 5126,
      "count": 522,
      "max": [
        0.99370574951171875,
        0.99376893043518066,
        0.9975285530090332
      ],
      "min": [
        -0.94865244626998901,
        -0.96858423948287964,
        -0.9910162091255188
      ],
      "type": "VEC3"
    },
    {
      "bufferView": 3,
      "byteOffset": 16784,
      "componentType": 5126,
      "count": 522,
      "max": [
        0.97196096181869507,
        0.99214589595794678,
        0.99462151527404785,
        1
      ],
      "min": [
        -0.99877560138702393,
        -0.99183797836303711,
        -0.99511981010437012,
        -1
      ],
      "type": "VEC4"
    },
    {
      "bufferView": 1,
      "byteOffset": 16784,
      "componentType": 5126,
      "count": 522,
      "max": [
        0.99627399444580078,
        0.99965500831604004
      ],
      "min": [
        0.00034500000765547156,
        0.00034500000765547156
      ],
      "type": "VEC2"
    },
    {
      "bufferView": 1,
      "byteOffset": 20960,
      "componentType": 5126,
      "count": 522,
      "max": [
        0.99627399444580078,
        0.99965500831604004
      ],
      "min": [
        0.00034500000765547156,
        0.00034500000765547156
      ],
      "type": "VEC2"
    },
    {
      "bufferView": 0,
      "byteOffset": 15972,
      "componentType": 5125,
      "count": 1881,
      "max": [
        521
      ],
      "min": [
        0
      ],
      "type": "SCALAR"
    },
    {
      "bufferView": 2,
      "byteOffset": 37704,
      "componentType": 5126,
      "count": 687,
      "max": [
        1.5022749900817871,
        3.9783399105072021,
        0.57990598678588867
      ],
      "min": [
        -1.1314699649810791,
        1.4021890163421631,
        -1.3394759893417358
      ],
      "type": "VEC3"
    },
    {
      "bufferView": 2,
      "byteOffset": 45948,
      "componentType": 5126,
      "count": 687,
      "max": [
        0.99545395374298096,
        0.99359124898910522,
        0.99179065227508545
      ],
      "min": [
        -0.9937778115272522,
        -0.99975395202636719,
        -0.99865615367889404
      ],
      "type": "VEC3"
    },
    {
      "bufferView": 3,
      "byteOffset": 25136,
      "componentType": 5126,
      "count": 687,
      "max": [
        0.99471396207809448,
        0.99872672557830811,
        0.99843472242355347,
        1
      ],
      "min": [
        -0.99973994493484497,
        -0.99516439437866211,
        -0.98845446109771729,
        -1
      ],
      "type": "VEC4"
    },
    {
      "bufferView": 1,
      "byteOffset": 25136,
      "componentType": 5126,
      "count": 687,
      "max": [
        0.99959498643875122,
        0.98985397815704346
      ],
      "min": [
        0.00040499999886378646,
        0.00040499999886378646
      ],
      "type": "VEC2"
    },
    {
      "bufferView": 1,
      "byteOffset": 30632,
      "componentType": 5126,
      "count": 687,
      "max": [
        0.99959498643875122,
        0.98985397815704346
      ],
      "min": [
        0.00040499999886378646,
        0.00040499999886378646
      ],
      "type": "VEC2"
    },
    {
      "bufferView": 0,
      "byteOffset": 23496,
      "componentType": 5125,
      "count": 2628,
      "max": [
        686
      ],
      "min": [
        0
      ],
      "type": "SCALAR"
    },
    {
      "bufferView": 2,
      "byteOffset": 54192,
      "componentType": 5126,
      "count": 1008,
      "max": [
        2.3826320171356201,
        3.870527982711792,
        2.3068358898162842
      ],
      "min": [
        -2.1316630840301514,
        -0.028367999941110611,
        -1.269745945930481
      ],
      "type": "VEC3"
    },
    {
      "bufferView": 2,
      "byteOffset": 66288,
      "componentType": 5126,
      "count": 1008,
      "max": [
        0.99899488687515259,
        0.99296075105667114,
        0.99239802360534668
      ],
      "min": [
        -0.9968111515045166,
        -0.99800378084182739,
        -0.99922686815261841
      ],
      "type": "VEC3"
    },
    {
      "bufferView": 3,
      "byteOffset": 36128,
      "componentType": 5126,
      "count": 1008,
      "max": [
        0.9981878399848938,
        0.9998481273651123,
        0.99872833490371704,
        1
      ],
      "min": [
        -0.99919289350509644,
        -0.99850374460220337,
        -0.99737370014190674,
        -1
      ],
      "type": "VEC4"
    },
    {
      "bufferView": 1,
      "byteOffset": 36128,
      "componentType": 5126,
      "count": 1008,
      "max": [
        0.99959897994995117,
        0.998881995677948
      ],
      "min": [
        0.00040099999750964344,
        0.00040099999750964344
      ],
      "type": "VEC2"
    },
    {
      "bufferView": 1,
      "byteOffset": 44192,
      "componentType": 5126,
      "count": 1008,
      "max": [
        0.99959897994995117,
        0.998881995677948
      ],
      "min": [
        0.00040099999750964344,
        0.00040099999750964344
      ],
      "type": "VEC2"
    },
    {
      "bufferView": 0,
      "byteOffset": 34008,
      "componentType": 5125,
      "count": 4056,
      "max": [
        1007
      ],
      "min": [
        0
      ],
      "type": "SCALAR"
    }
  ],
  "asset": {
    "extras": {
      "author": "wilsonghm99 (https://sketchfab.com/wilsonghm99)",
      "license": "CC-BY-NC-4.0 (http://creativecommons.org/licenses/by-nc/4.0/)",
      "source": "https://sketchfab.com/3d-models/the-pumpkin-mage-1d4a203a2aa742faa04cfeab6486ce6e",
      "title": "The Pumpkin Mage"
    },
    "generator": "Sketchfab-9.41.1",
    "version": "2.0"
  },
  "bufferViews": [
    {
      "buffer": 0,
      "byteLength": 50232,
      "byteOffset": 0,
      "name": "floatBufferViews",
      "target": 34963
    },
    {
      "buffer": 0,
      "byteLength": 52256,
      "byteOffset": 50232,
      "byteStride": 8,
      "name": "floatBufferViews",
      "target": 34962
    },
    {
      "buffer": 0,
      "byteLength": 78384,
      "byteOffset": 102488,
      "byteStride": 12,
      "name": "floatBufferViews",
      "target": 34962
    },
    {
      "buffer": 0,
      "byteLength": 52256,
      "byteOffset": 180872,
      "byteStride": 16,
      "name": "floatBufferViews",
      "target": 34962
    }
  ],
  "buffers": [
    {
      "byteLength": 233128,
      "uri": "scene.bin"
    }
  ],
  "images": [
    {
      "uri": "textures/head_baseColor.jpeg"
    },
    {
      "uri": "textures/head_metallicRoughness.png"
    },
    {
      "uri": "textures/head_normal.png"
    },
    {
      "uri": "textures/wood_baseColor.jpeg"
    },
    {
      "uri": "textures/wood_metallicRoughness.png"
    },
    {
      "uri": "textures/wood_normal.png"
    },
    {
      "uri": "textures/briefcase_baseColor.jpeg"
    },
    {
      "uri": "textures/briefcase_metallicRoughness.png"
    },
    {
      "uri": "textures/briefcase_normal.png"
    },
    {
      "uri": "textures/clothing1_baseColor.jpeg"
    },
    {
      "uri": "textures/clothing1_metallicRoughness.png"
    },
    {
      "uri": "textures/clothing1_normal.png"
    },
    {
      "uri": "textures/clothing2_baseColor.jpeg"
    },
    {
      "uri": "textures/clothing2_metallicRoughness.png"
    },
    {
      "uri": "textures/clothing2_normal.png"
    }
  ],
  "materials": [
    {
      "doubleSided": true,
      "name": "head",
      "normalTexture": {
        "index": 2,
        "scale": 1,
        "texCoord": 1
      },
      "pbrMetallicRoughness": {
        "baseColorFactor": [
          1,
          1,
          1,
          1
        ],
        "baseColorTexture": {
          "index": 0,
          "texCoord": 0
        },
        "metallicFactor": 1,
        "metallicRoughnessTexture": {
          "index": 1,
          "texCoord": 0
        },
        "roughnessFactor": 1
      }
    },
    {
      "doubleSided": true,
      "name": "wood",
      "normalTexture": {
        "index": 5,
        "scale": 1,
        "texCoord": 0
      },
      "pbrMetallicRoughness": {
        "baseColorFactor": [
          1,
          1,
          1,
          1
        ],
        "baseColorTexture": {
          "index": 3,
          "texCoord": 0
        },
        "metallicFactor": 1,
        "metallicRoughnessTexture": {
          "index": 4,
          "texCoord": 0
        },
        "roughnessFactor": 1
      }
    },
    {
      "doubleSided": true,
      "name": "briefcase",
      "normalTexture": {
        "index": 8,
        "scale": 1,
        "texCoord": 0
      },
      "occlusionTexture": {
        "index": 7,
        "strength": 1,
        "texCoord": 0
      },
      "pbrMetallicRoughness": {
        "baseColorFactor": [
          1,
          1,
          1,
          1
        ],
        "baseColorTexture": {
          "index": 6,
          "texCoord": 0
        },
        "metallicFactor": 1,
        "metallicRoughnessTexture": {
          "index": 7,
          "texCoord": 0
        },
        "roughnessFactor": 1
      }
    },
    {
      "doubleSided": true,
      "name": "clothing1",
      "normalTexture": {
        "index": 11,
        "scale": 1,
        "texCoord": 1
      },
      "pbrMetallicRoughness": {
        "baseColorFactor": [
          1,
          1,
          1,
          1
        ],
        "baseColorTexture": {
          "index": 9,
          "texCoord": 0
        },
        "metallicFactor": 1,
        "metallicRoughnessTexture": {
          "index": 10,
          "texCoord": 0
        },
        "roughnessFactor": 1
      }
    },
    {
      "doubleSided": true,
      "emissiveFactor": [
        0,
        0,
        0
      ],
      "name": "clothing2",
      "normalTexture": {
        "index": 14,
        "scale": 1,
        "texCoord": 0
      },
      "pbrMetallicRoughness": {
        "baseColorFactor": [
          1,
          1,
          1,
          1
        ],
        "baseColorTexture": {
          "index": 12,
          "texCoord": 0
        },
        "metallicFactor": 1,
        "metallicRoughnessTexture": {
          "index": 13,
          "texCoord": 0
        },
        "roughnessFactor": 1
      }
    }
  ],
  "meshes": [
    {
      "name": "head_head_0",
      "primitives": [
        {
          "attributes": {
            "NORMAL": 1,
            "POSITION": 0,
            "TANGENT": 2,
            "TEXCOORD_0": 3,
            "TEXCOORD_1": 4
          },
          "indices": 5,
          "material": 0,
          "mode": 4
        }
      ]
    },
    {
      "name": "wood_wood_0",
      "primitives": [
        {
          "attributes": {
            "NORMAL": 7,
            "POSITION": 6,
            "TANGENT": 8,
            "TEXCOORD_0": 9,
            "TEXCOORD_1": 10
          },
          "indices": 11,
          "material": 1,
          "mode": 4
        }
      ]
    },
    {
      "name": "briefcase_briefcase_0",
      "primitives": [
        {
          "attributes": {
            "NORMAL": 13,
            "POSITION": 12,
            "TANGENT": 14,
            "TEXCOORD_0": 15,
            "TEXCOORD_1": 16
          },
          "indices": 17,
          "material": 2,
          "mode": 4
        }
      ]
    },
    {
      "name": "clothing1_clothing1_0",
      "primitives": [
        {
          "attributes": {
            "NORMAL": 19,
            "POSITION": 18,
            "TANGENT": 20,
            "TEXCOORD_0": 21,
            "TEXCOORD_1": 22
          },
          "indices": 23,
          "material": 3,
          "mode": 4
        }
      ]
    },
    {
      "name": "clothing2_clothing2_0",
      "primitives": [
        {
          "attributes": {
            "NORMAL": 25,
            "POSITION": 24,
            "TANGENT": 26,
            "TEXCOORD_0": 27,
            "TEXCOORD_1": 28
          },
          "indices": 29,
          "material": 4,
          "mode": 4
        }
      ]
    }
  ],
  "nodes": [
    {
      "children": [
        1
      ],
      "name": "RootNode (gltf orientation matrix)",
      "rotation": [
        -0.70710678118654746,
        -0,
        -0,
        0.70710678118654757
      ]
    },
    {
      "children": [
        2
      ],
      "matrix": [
        0.0015738875372335315,
        4.4584603651102516e-19,
        -2.5310041546164672e-19,
        0,
        -4.4584603651102516e-19,
        0.0015738875372335315,
        2.2198657901934255e-35,
        0,
        2.5310041546164672e-19,
        4.9498853517240833e-35,
        0.0015738875372335315,
        0,
        -8.1712414612411521e-14,
        1.2072493518644478e-05,
        -2.2899572286405601e-05,
        1
      ],
      "name": "RootNode (model correction matrix)"
    },
    {
      "children": [
        3
      ],
      "matrix": [
        1,
        0,
        0,
        0,
        0,
        0,
        1,
        0,
        0,
        -1,
        0,
        0,
        0,
        0,
        0,
        1
      ],
      "name": "The Pumpkin Mage.fbx"
    },
    {
      "children": [
        4,
        6,
        8,
        10,
        12
      ],
      "name": "RootNode"
    },
    {
      "children": [
        5
      ],
      "matrix": [
        100,
        0,
        0,
        0,
        0,
        99.999999999998664,
        1.6292067073209114e-05,
        0,
        0,
        -1.6292067073209114e-05,
        99.999999999998664,
        0,
        0,
        201.45912170410156,
        3.2821859349496663e-05,
        1
      ],
      "name": "head"
    },
    {
      "mesh": 0,
      "name": "head_head_0"
    },
    {
      "children": [
        7
      ],
      "matrix": [
        100,
        0,
        0,
        0,
        0,
        99.999999999998664,
        1.6292067073209114e-05,
        0,
        0,
        -1.6292067073209114e-05,
        99.999999999998664,
        0,
        0,
        201.45912170410156,
        3.2821859349496663e-05,
        1
      ],
      "name": "wood"
    },
    {
      "mesh": 1,
      "name": "wood_wood_0"
    },
    {
      "children": [
        9
      ],
      "matrix": [
        100,
        0,
        0,
        0,
        0,
        99.999999999998664,
        1.6292067073209114e-05,
        0,
        0,
        -1.6292067073209114e-05,
        99.999999999998664,
        0,
        0,
        201.45912170410156,
        3.2821859349496663e-05,
        1
      ],
      "name": "briefcase"
    },
    {
      "mesh": 2,
      "name": "briefcase_briefcase_0"
    },
    {
      "children": [
        11
      ],
      "matrix": [
        100,
        0,
        0,
        0,
        0,
        99.999999999998664,
        1.6292067073209114e-05,
        0,
        0,
        -1.6292067073209114e-05,
        99.999999999998664,
        0,
        0,
        201.45912170410156,
        3.2821859349496663e-05,
        1
      ],
      "name": "clothing1"
    },
    {
      "mesh": 3,
      "name": "clothing1_clothing1_0"
    },
    {
      "children": [
        13
      ],
      "matrix": [
        100,
        0,
        0,
        0,
        0,
        99.999999999998664,
        1.6292067073209114e-05,
        0,
        0,
        -1.6292067073209114e-05,
        99.999999999998664,
        0,
        0,
        201.45912170410156,
        3.2821859349496663e-05,
        1
      ],
      "name": "clothing2"
    },
    {
      "mesh": 4,
      "name": "clothing2_clothing2_0"
    }
  ],
  "samplers": [
    {
      "magFilter": 9729,
      "minFilter": 9987,
      "wrapS": 10497,
      "wrapT": 10497
    }
  ],
  "scene": 0,
  "scenes": [
    {
      "name": "OSG_Scene",
      "nodes": [
        0
      ]
    }
  ],
  "textures": [
    {
      "sampler": 0,
      "source": 0
    },
    {
      "sampler": 0,
      "source": 1
    },
    {
      "sampler": 0,
      "source": 2
    },
    {
      "sampler": 0,
      "source": 3
    },
    {
      "sampler": 0,
      "source": 4
    },
    {
      "sampler": 0,
      "source": 5
    },
    {
      "sampler": 0,
      "source": 6
    },
    {
      "sampler": 0,
      "source": 7
    },
    {
      "sampler": 0,
      "source": 8
    },
    {
      "sampler": 0,
      "source": 9
    },
    {
      "sampler": 0,
      "source": 10
    },
    {
      "sampler": 0,
      "source": 11
    },
    {
      "sampler": 0,
      "source": 12
    },
    {
      "sampler": 0,
      "source": 13
    },
    {
      "sampler": 0,
      "source": 14
    }
  ]
}

