{
  "accessors": [
    {
      "bufferView": 2,
      "componentType": 5126,
      "count": 9915,
      "max": [
        8.1399326324462891,
        4.5075688362121582,
        17.208900451660156
      ],
      "min": [
        -10.358322143554688,
        -4.507565975189209,
        -0.38242200016975403
      ],
      "type": "VEC3"
    },
    {
      "bufferView": 2,
      "byteOffset": 118980,
      "componentType": 5126,
      "count": 9915,
      "max": [
        1,
        1,
        1
      ],
      "min": [
        -1,
        -1,
        -1
      ],
      "type": "VEC3"
    },
    {
      "bufferView": 3,
      "componentType": 5126,
      "count": 9915,
      "max": [
        0.99999964237213135,
        0.99999600648880005,
        0.99999350309371948,
        1
      ],
      "min": [
        -0.9999995231628418,
        -0.99999862909317017,
        -0.99999380111694336,
        1
      ],
      "type": "VEC4"
    },
    {
      "bufferView": 1,
      "componentType": 5126,
      "count": 9915,
      "max": [
        0.99751901626586914,
        0.98837900161743164
      ],
      "min": [
        0.005816000048071146,
        0.0039260000921785831
      ],
      "type": "VEC2"
    },
    {
      "bufferView": 0,
      "componentType": 5125,
      "count": 49197,
      "max": [
        9914
      ],
      "min": [
        0
      ],
      "type": "SCALAR"
    },
    {
      "bufferView": 2,
      "byteOffset": 237960,
      "componentType": 5126,
      "count": 6783,
      "max": [
        4.2485251426696777,
        3.9147191047668457,
        15.634276390075684
      ],
      "min": [
        -4.2485251426696777,
        -4.187964916229248,
        1.4066740274429321
      ],
      "type": "VEC3"
    },
    {
      "bufferView": 2,
      "byteOffset": 319356,
      "componentType": 5126,
      "count": 6783,
      "max": [
        1,
        1,
        1
      ],
      "min": [
        -1,
        -1,
        -1
      ],
      "type": "VEC3"
    },
    {
      "bufferView": 3,
      "byteOffset": 158640,
      "componentType": 5126,
      "count": 6783,
      "max": [
        0.99999642372131348,
        0.99999964237213135,
        0.99986737966537476,
        1
      ],
      "min": [
        -0.99999642372131348,
        -0.9999997615814209,
        -0.99968332052230835,
        1
      ],
      "type": "VEC4"
    },
    {
      "bufferView": 1,
      "byteOffset": 79320,
      "componentType": 5126,
      "count": 6783,
      "max": [
        0.37137898802757263,
        0.80797499418258667
      ],
      "min": [
        0.010048000141978264,
        0.1515209972858429
      ],
      "type": "VEC2"
    },
    {
      "bufferView": 0,
      "byteOffset": 196788,
      "componentType": 5125,
      "count": 34680,
      "max": [
        6782
      ],
      "min": [
        0
      ],
      "type": "SCALAR"
    }
  ],
  "asset": {
    "extras": {
      "author": "wearingthegrudge (https://sketchfab.com/wearingthegrudge)",
      "license": "CC-BY-4.0 (http://creativecommons.org/licenses/by/4.0/)",
      "source": "https://sketchfab.com/3d-models/gd55-mod2-a1-brennanmcgreevy-f1f4f5907f34459a9fb1a09ff189c3bf",
      "title": "GD55_MOD2_A1_BrennanMcGreevy"
    },
    "generator": "Sketchfab-6.36.0",
    "version": "2.0"
  },
  "bufferViews": [
    {
      "buffer": 0,
      "byteLength": 335508,
      "byteOffset": 0,
      "name": "floatBufferViews",
      "target": 34963
    },
    {
      "buffer": 0,
      "byteLength": 133584,
      "byteOffset": 335508,
      "byteStride": 8,
      "name": "floatBufferViews",
      "target": 34962
    },
    {
      "buffer": 0,
      "byteLength": 400752,
      "byteOffset": 469092,
      "byteStride": 12,
      "name": "floatBufferViews",
      "target": 34962
    },
    {
      "buffer": 0,
      "byteLength": 267168,
      "byteOffset": 869844,
      "byteStride": 16,
      "name": "floatBufferViews",
      "target": 34962
    }
  ],
  "buffers": [
    {
      "byteLength": 1137012,
      "uri": "scene.bin"
    }
  ],
  "images": [
    {
      "uri": "textures/lambert2SG_baseColor.png"
    },
    {
      "uri": "textures/lambert2SG_metallicRoughness.png"
    },
    {
      "uri": "textures/lambert2SG_normal.png"
    }
  ],
  "materials": [
    {
      "doubleSided": true,
      "name": "lambert2SG",
      "normalTexture": {
        "index": 2,
        "scale": 1,
        "texCoord": 0
      },
      "occlusionTexture": {
        "index": 1,
        "strength": 1,
        "texCoord": 0
      },
      "pbrMetallicRoughness": {
        "baseColorFactor": [
          1,
          1,
          1,
          1
        ],
        "baseColorTexture": {
          "index": 0,
          "texCoord": 0
        },
        "metallicFactor": 1,
        "metallicRoughnessTexture": {
          "index": 1,
          "texCoord": 0
        },
        "roughnessFactor": 1
      }
    }
  ],
  "meshes": [
    {
      "primitives": [
        {
          "attributes": {
            "NORMAL": 1,
            "POSITION": 0,
            "TANGENT": 2,
            "TEXCOORD_0": 3
          },
          "indices": 4,
          "material": 0,
          "mode": 4
        }
      ]
    },
    {
      "primitives": [
        {
          "attributes": {
            "NORMAL": 6,
            "POSITION": 5,
            "TANGENT": 7,
            "TEXCOORD_0": 8
          },
          "indices": 9,
          "material": 0,
          "mode": 4
        }
      ]
    }
  ],
  "nodes": [
    {
      "children": [
        1
      ],
      "name": "RootNode (gltf orientation matrix)",
      "rotation": [
        -0.70710678118654746,
        -0,
        -0,
        0.70710678118654757
      ]
    },
    {
      "children": [
        2
      ],
      "name": "RootNode (model correction matrix)"
    },
    {
      "children": [
        3,
        4
      ],
      "name": "PipeBirdcageGoblet.obj.cleaner.materialmerger.gles"
    },
    {
      "mesh": 0,
      "name": ""
    },
    {
      "mesh": 1,
      "name": ""
    }
  ],
  "samplers": [
    {
      "magFilter": 9729,
      "minFilter": 9987,
      "wrapS": 10497,
      "wrapT": 10497
    }
  ],
  "scene": 0,
  "scenes": [
    {
      "name": "OSG_Scene",
      "nodes": [
        0
      ]
    }
  ],
  "textures": [
    {
      "sampler": 0,
      "source": 0
    },
    {
      "sampler": 0,
      "source": 1
    },
    {
      "sampler": 0,
      "source": 2
    }
  ]
}

